<mxfile host="app.diagrams.net" agent="Mozilla/5.0 (Macintosh; Intel Mac OS X 10_15_7) AppleWebKit/537.36 (KHTML, like Gecko) Chrome/134.0.0.0 Safari/537.36" version="26.2.14">
  <diagram name="PÃ¡gina-1" id="IkAE_Rgw1rNBqZ4q8MyZ">
    <mxGraphModel dx="1426" dy="806" grid="1" gridSize="10" guides="1" tooltips="1" connect="1" arrows="1" fold="1" page="1" pageScale="1" pageWidth="827" pageHeight="1169" math="0" shadow="0">
      <root>
        <mxCell id="0" />
        <mxCell id="1" parent="0" />
        <mxCell id="kso5AjJPwojteGqDQw1w-1" value="USUARIO" style="whiteSpace=wrap;html=1;align=center;fillColor=#dae8fc;strokeColor=#6c8ebf;" vertex="1" parent="1">
          <mxGeometry x="140" y="240" width="100" height="40" as="geometry" />
        </mxCell>
        <mxCell id="kso5AjJPwojteGqDQw1w-2" value="Realiza" style="shape=rhombus;perimeter=rhombusPerimeter;whiteSpace=wrap;html=1;align=center;fillColor=#ffe6cc;strokeColor=#d79b00;" vertex="1" parent="1">
          <mxGeometry x="374" y="235" width="100" height="50" as="geometry" />
        </mxCell>
        <mxCell id="kso5AjJPwojteGqDQw1w-3" value="Cliente,&lt;div&gt;Proveedor&lt;/div&gt;" style="shape=hexagon;perimeter=hexagonPerimeter2;whiteSpace=wrap;html=1;fixedSize=1;fillColor=#e1d5e7;strokeColor=#9673a6;" vertex="1" parent="1">
          <mxGeometry x="540" y="50" width="90" height="75" as="geometry" />
        </mxCell>
        <mxCell id="kso5AjJPwojteGqDQw1w-4" value="IdUsuario" style="ellipse;whiteSpace=wrap;html=1;align=center;fontStyle=4;fillColor=#d5e8d4;strokeColor=#82b366;" vertex="1" parent="1">
          <mxGeometry x="20" y="200" width="100" height="40" as="geometry" />
        </mxCell>
        <mxCell id="kso5AjJPwojteGqDQw1w-5" value="CARTA" style="whiteSpace=wrap;html=1;align=center;fillColor=#dae8fc;strokeColor=#6c8ebf;" vertex="1" parent="1">
          <mxGeometry x="620" y="520" width="100" height="40" as="geometry" />
        </mxCell>
        <mxCell id="kso5AjJPwojteGqDQw1w-6" value="CAPTURA" style="whiteSpace=wrap;html=1;align=center;fillColor=#dae8fc;strokeColor=#6c8ebf;" vertex="1" parent="1">
          <mxGeometry x="620" y="240" width="100" height="40" as="geometry" />
        </mxCell>
        <mxCell id="kso5AjJPwojteGqDQw1w-7" value="" style="endArrow=none;html=1;rounded=0;" edge="1" parent="1" source="kso5AjJPwojteGqDQw1w-1" target="kso5AjJPwojteGqDQw1w-2">
          <mxGeometry relative="1" as="geometry">
            <mxPoint x="290" y="370" as="sourcePoint" />
            <mxPoint x="450" y="370" as="targetPoint" />
          </mxGeometry>
        </mxCell>
        <mxCell id="kso5AjJPwojteGqDQw1w-8" value="" style="endArrow=none;html=1;rounded=0;" edge="1" parent="1" source="kso5AjJPwojteGqDQw1w-2" target="kso5AjJPwojteGqDQw1w-6">
          <mxGeometry relative="1" as="geometry">
            <mxPoint x="560" y="360" as="sourcePoint" />
            <mxPoint x="720" y="360" as="targetPoint" />
          </mxGeometry>
        </mxCell>
        <mxCell id="kso5AjJPwojteGqDQw1w-9" value="1 : M" style="text;strokeColor=none;fillColor=none;spacingLeft=4;spacingRight=4;overflow=hidden;rotatable=0;points=[[0,0.5],[1,0.5]];portConstraint=eastwest;fontSize=12;whiteSpace=wrap;html=1;fontStyle=1" vertex="1" parent="1">
          <mxGeometry x="404" y="205" width="40" height="30" as="geometry" />
        </mxCell>
        <mxCell id="kso5AjJPwojteGqDQw1w-10" value="0 : M" style="text;strokeColor=none;fillColor=none;spacingLeft=4;spacingRight=4;overflow=hidden;rotatable=0;points=[[0,0.5],[1,0.5]];portConstraint=eastwest;fontSize=12;whiteSpace=wrap;html=1;fontStyle=1" vertex="1" parent="1">
          <mxGeometry x="580" y="230" width="40" height="30" as="geometry" />
        </mxCell>
        <mxCell id="kso5AjJPwojteGqDQw1w-11" value="1 : 1" style="text;strokeColor=none;fillColor=none;spacingLeft=4;spacingRight=4;overflow=hidden;rotatable=0;points=[[0,0.5],[1,0.5]];portConstraint=eastwest;fontSize=12;whiteSpace=wrap;html=1;fontStyle=1" vertex="1" parent="1">
          <mxGeometry x="240" y="230" width="40" height="30" as="geometry" />
        </mxCell>
        <mxCell id="kso5AjJPwojteGqDQw1w-12" value="Contiene" style="shape=rhombus;perimeter=rhombusPerimeter;whiteSpace=wrap;html=1;align=center;fillColor=#ffe6cc;strokeColor=#d79b00;" vertex="1" parent="1">
          <mxGeometry x="620" y="380" width="100" height="50" as="geometry" />
        </mxCell>
        <mxCell id="kso5AjJPwojteGqDQw1w-13" value="" style="endArrow=none;html=1;rounded=0;" edge="1" parent="1" source="kso5AjJPwojteGqDQw1w-6" target="kso5AjJPwojteGqDQw1w-12">
          <mxGeometry relative="1" as="geometry">
            <mxPoint x="510" y="390" as="sourcePoint" />
            <mxPoint x="670" y="390" as="targetPoint" />
          </mxGeometry>
        </mxCell>
        <mxCell id="kso5AjJPwojteGqDQw1w-14" value="" style="endArrow=none;html=1;rounded=0;" edge="1" parent="1" source="kso5AjJPwojteGqDQw1w-5" target="kso5AjJPwojteGqDQw1w-12">
          <mxGeometry relative="1" as="geometry">
            <mxPoint x="720" y="440" as="sourcePoint" />
            <mxPoint x="880" y="440" as="targetPoint" />
          </mxGeometry>
        </mxCell>
        <mxCell id="kso5AjJPwojteGqDQw1w-15" value="1 : 1" style="text;strokeColor=none;fillColor=none;spacingLeft=4;spacingRight=4;overflow=hidden;rotatable=0;points=[[0,0.5],[1,0.5]];portConstraint=eastwest;fontSize=12;whiteSpace=wrap;html=1;fontStyle=1" vertex="1" parent="1">
          <mxGeometry x="720" y="390" width="40" height="30" as="geometry" />
        </mxCell>
        <mxCell id="kso5AjJPwojteGqDQw1w-16" value="0 : 1" style="text;strokeColor=none;fillColor=none;spacingLeft=4;spacingRight=4;overflow=hidden;rotatable=0;points=[[0,0.5],[1,0.5]];portConstraint=eastwest;fontSize=12;whiteSpace=wrap;html=1;fontStyle=1" vertex="1" parent="1">
          <mxGeometry x="670" y="280" width="40" height="30" as="geometry" />
        </mxCell>
        <mxCell id="kso5AjJPwojteGqDQw1w-17" value="1 : 1" style="text;strokeColor=none;fillColor=none;spacingLeft=4;spacingRight=4;overflow=hidden;rotatable=0;points=[[0,0.5],[1,0.5]];portConstraint=eastwest;fontSize=12;whiteSpace=wrap;html=1;fontStyle=1" vertex="1" parent="1">
          <mxGeometry x="670" y="490" width="40" height="30" as="geometry" />
        </mxCell>
        <mxCell id="kso5AjJPwojteGqDQw1w-18" value="Nombre" style="ellipse;whiteSpace=wrap;html=1;align=center;fillColor=#d5e8d4;strokeColor=#82b366;" vertex="1" parent="1">
          <mxGeometry x="80" y="150" width="100" height="40" as="geometry" />
        </mxCell>
        <mxCell id="kso5AjJPwojteGqDQw1w-19" value="Apellido" style="ellipse;whiteSpace=wrap;html=1;align=center;fillColor=#d5e8d4;strokeColor=#82b366;" vertex="1" parent="1">
          <mxGeometry x="10" y="275" width="100" height="40" as="geometry" />
        </mxCell>
        <mxCell id="kso5AjJPwojteGqDQw1w-20" value="Correo" style="ellipse;whiteSpace=wrap;html=1;align=center;fillColor=#d5e8d4;strokeColor=#82b366;" vertex="1" parent="1">
          <mxGeometry x="80" y="320" width="100" height="40" as="geometry" />
        </mxCell>
        <mxCell id="kso5AjJPwojteGqDQw1w-21" value="Password" style="ellipse;whiteSpace=wrap;html=1;align=center;fillColor=#d5e8d4;strokeColor=#82b366;" vertex="1" parent="1">
          <mxGeometry x="200" y="320" width="100" height="40" as="geometry" />
        </mxCell>
        <mxCell id="kso5AjJPwojteGqDQw1w-24" value="DateRegistered" style="ellipse;whiteSpace=wrap;html=1;align=center;fillColor=#d5e8d4;strokeColor=#82b366;" vertex="1" parent="1">
          <mxGeometry x="200" y="160" width="100" height="40" as="geometry" />
        </mxCell>
        <mxCell id="kso5AjJPwojteGqDQw1w-25" value="" style="endArrow=none;html=1;rounded=0;" edge="1" parent="1" source="kso5AjJPwojteGqDQw1w-4" target="kso5AjJPwojteGqDQw1w-1">
          <mxGeometry relative="1" as="geometry">
            <mxPoint x="310" y="490" as="sourcePoint" />
            <mxPoint x="470" y="490" as="targetPoint" />
          </mxGeometry>
        </mxCell>
        <mxCell id="kso5AjJPwojteGqDQw1w-26" value="" style="endArrow=none;html=1;rounded=0;" edge="1" parent="1" source="kso5AjJPwojteGqDQw1w-19" target="kso5AjJPwojteGqDQw1w-1">
          <mxGeometry relative="1" as="geometry">
            <mxPoint x="50" y="300" as="sourcePoint" />
            <mxPoint x="210" y="300" as="targetPoint" />
          </mxGeometry>
        </mxCell>
        <mxCell id="kso5AjJPwojteGqDQw1w-27" value="" style="endArrow=none;html=1;rounded=0;" edge="1" parent="1" source="kso5AjJPwojteGqDQw1w-20" target="kso5AjJPwojteGqDQw1w-1">
          <mxGeometry relative="1" as="geometry">
            <mxPoint x="130" y="330" as="sourcePoint" />
            <mxPoint x="280" y="330" as="targetPoint" />
          </mxGeometry>
        </mxCell>
        <mxCell id="kso5AjJPwojteGqDQw1w-28" value="" style="endArrow=none;html=1;rounded=0;" edge="1" parent="1" source="kso5AjJPwojteGqDQw1w-1" target="kso5AjJPwojteGqDQw1w-18">
          <mxGeometry relative="1" as="geometry">
            <mxPoint x="160" y="210" as="sourcePoint" />
            <mxPoint x="320" y="210" as="targetPoint" />
          </mxGeometry>
        </mxCell>
        <mxCell id="kso5AjJPwojteGqDQw1w-29" value="" style="endArrow=none;html=1;rounded=0;" edge="1" parent="1" source="kso5AjJPwojteGqDQw1w-21" target="kso5AjJPwojteGqDQw1w-1">
          <mxGeometry relative="1" as="geometry">
            <mxPoint x="260" y="400" as="sourcePoint" />
            <mxPoint x="420" y="400" as="targetPoint" />
          </mxGeometry>
        </mxCell>
        <mxCell id="kso5AjJPwojteGqDQw1w-30" value="" style="endArrow=none;html=1;rounded=0;" edge="1" parent="1" source="kso5AjJPwojteGqDQw1w-1" target="kso5AjJPwojteGqDQw1w-24">
          <mxGeometry relative="1" as="geometry">
            <mxPoint x="230" y="220" as="sourcePoint" />
            <mxPoint x="390" y="220" as="targetPoint" />
          </mxGeometry>
        </mxCell>
      </root>
    </mxGraphModel>
  </diagram>
</mxfile>
